<svg xmlns="http://www.w3.org/2000/svg" width="1196.77419" height="327.04241" viewBox="0 0 1196.77419 327.04241">
  <defs>
    <style>
      .a {
        fill: #bb9753;
      }

      .b {
        fill: #511d4b;
      }
    </style>
  </defs>
  <title>vistara-logo-freelogovectors.net</title>
  <g>
    <path class="a" d="M366.89377,397.68454c-.6584-.93838-17.514-23.20421-49.33841-43.72524a225.56476,225.56476,0,0,0,4.56529-31.88435c1.47052-21.10843-.66946-34.81468-.73543-35.41281l-.43871-2.78163-2.76557-.40054c-.54855-.08808-14.29332-2.16208-35.33578-.71333a221.52049,221.52049,0,0,0-31.6814,4.46081c-20.587-31.74738-42.79791-48.318-43.76911-49.10265l-2.27159-1.646-2.27729,1.646c-.96014.78466-23.26984,17.35527-43.87326,49.16829a223.27686,223.27686,0,0,0-31.93927-4.52645c-21.05351-1.44875-34.79827.59243-35.29191.71333l-2.82048.40054-.42767,2.78163c-.12089.59813-2.16208,14.30438-.69155,35.41281a214.00609,214.00609,0,0,0,4.53782,31.88435c-31.75843,20.55385-48.3508,42.78686-49.08623,43.76911l-1.64032,2.23308,1.64032,2.3158c.73543.96014,17.39378,23.22061,49.174,43.82938a236.53221,236.53221,0,0,0-4.54855,31.70351c-1.44875,21.05318.49364,34.78153.61453,35.30263l.42767,2.85866,2.82048.44441a156.4873,156.4873,0,0,0,19.93932,1.11386c4.505,0,9.70659-.18654,15.44033-.565a233.05442,233.05442,0,0,0,31.85153-4.60916c20.60342,31.92856,42.91312,48.73493,43.84044,49.39869l2.31011,1.76691,2.30441-1.76691c.93838-.66376,23.14929-17.47013,43.73629-49.31095a237.331,237.331,0,0,0,31.57725,4.52142c5.73374.37843,10.99025.565,15.50062.565a156.747,156.747,0,0,0,19.91754-1.11386l2.82016-.44441.40589-2.85866c.066-.5211,2.06329-14.24945.5653-35.30263a225.87449,225.87449,0,0,0-4.52677-31.70351c31.9175-20.576,48.81162-42.84747,49.47-43.7691l1.77226-2.37608Zm-64.93749,2.38679a209.09082,209.09082,0,0,0,8.55389-20.86664,167.47691,167.47691,0,0,1,24.44433,20.7568,159.69325,159.69325,0,0,1-24.55384,20.88874,204.89765,204.89765,0,0,0-8.44438-20.7789M283.10873,290.47024a185.02529,185.02529,0,0,1,31.0173.28533c1.19625,11.82983,3.93971,58.58921-19.89008,107.63124a194.75069,194.75069,0,0,1-9.95308,18.09036c-2.65036,4.225-5.41023,8.27995-8.24143,12.0877l-.91092,1.3004.21969,1.57468a141.15138,141.15138,0,0,1,.60348,39.5223,141.15772,141.15772,0,0,1-39.51125-.64735l-1.59678-.23577-1.28934.938c-3.18787,2.354-6.69422,4.708-10.21665,6.95745-3.40186-1.44843-6.793-2.97387-10.11784-4.66375a174.02419,174.02419,0,0,0,19.6868-13.63492c17.76116,4.23575,30.6007,3.12189,31.166,3.0231l3.17112-.27964.28533-3.13328c.07134-.57066,1.20194-13.40451-3.03415-31.12179A183.26255,183.26255,0,0,0,282.033,401.78867a201.58373,201.58373,0,0,0,9.081-18.89142c17.53075-42.65525,14.008-77.92506,13.89848-79.412l-.291-3.07835-3.16576-.35667c-1.4156-.13161-35.65427-3.51171-77.43711,13.163-3.358-2.06295-6.84224-4.03816-10.37036-5.93668a211.2983,211.2983,0,0,1,69.36045-16.80637m.04387,141.39234c1.23978-1.56931,2.38679-3.29771,3.48425-4.93836,11.14932,30.51832,11.4236,56.64716,11.0944,65.536-8.98222.38948-35.0394.0931-65.60159-11.02341,1.59109-1.0643,3.13864-2.156,4.64734-3.226,24.40581,3.4896,42.50187.05492,43.30294-.0988l2.54017-.494.48862-2.51841c.137-.80107,3.59375-18.92425.04387-43.237m-130.46808-7.34692a179.0288,179.0288,0,0,1-16.72968-24.55417,177.87781,177.87781,0,0,1,16.5542-24.40012l1.16845-1.54186-.47187-1.81613a105.14373,105.14373,0,0,1-3.36871-27.16568,106.78966,106.78966,0,0,1,27.14358,3.32483l1.87675.49933,1.47053-1.2016a180.91329,180.91329,0,0,1,24.91049-16.90517,187.04622,187.04622,0,0,1,24.55953,16.74609l1.48693,1.26189,1.90388-.49364a109.13346,109.13346,0,0,1,27.00661-3.42932,105.12537,105.12537,0,0,1-3.40187,27.03942l-.49932,1.87106,1.25652,1.51976a183.11229,183.11229,0,0,1,16.69117,24.69114,180.59017,180.59017,0,0,1-16.86665,24.81739l-1.27294,1.498.45512,1.88747a105.24144,105.24144,0,0,1,3.435,27.05047,107.775,107.775,0,0,1-26.98484-3.44573l-1.88177-.46617-1.53114,1.21232a177.73325,177.73325,0,0,1-24.35625,16.55955,175.4885,175.4885,0,0,1-24.69114-16.724l-1.49263-1.19055-1.87641.47723a105.53474,105.53474,0,0,1-27.1054,3.38545,104.78968,104.78968,0,0,1,3.30876-27.11645l.49933-1.90388Zm130.42421-99.75217-.48862-2.55157-2.54017-.47187c-.80107-.15371-18.89713-3.57734-43.2095-.07669-1.52009-1.081-3.09477-2.1949-4.708-3.27025a178.49857,178.49857,0,0,1,65.36013-10.89145c.36771,8.87773.26356,34.92955-10.88576,65.50279-1.13061-1.66812-2.26624-3.35264-3.48425-4.96013,3.54988-24.32377.0931-42.46335-.04387-43.28083M204.93652,302.854a205.98416,205.98416,0,0,0-20.64192-8.48825,160.4479,160.4479,0,0,1,20.82846-24.241,157.96166,157.96166,0,0,1,20.71292,24.1754,199.69894,199.69894,0,0,0-20.89946,8.55389m.18654-56.65218A201.4624,201.4624,0,0,1,243.2023,289.126c-3.13294.81178-6.4253,1.70629-9.70091,2.69389-13.218-19.33047-25.40982-29.3934-25.95871-29.87632l-2.41962-1.98057-2.41426,1.98057c-.57066.48292-12.78462,10.60077-26.04646,29.92019-3.292-.95478-6.55691-1.86-9.69555-2.70494a202.602,202.602,0,0,1,38.15627-42.957M95.75237,290.75557c11.857-1.19625,58.47937-3.96181,107.52709,19.81306A186.969,186.969,0,0,1,221.699,320.75781c4.148,2.579,8.18651,5.34425,11.87907,8.06594l1.3168.93838,1.54755-.26892a143.74876,143.74876,0,0,1,39.51125-.60348,141.29518,141.29518,0,0,1-.60348,39.54407l-.28,1.60783.96014,1.22337c2.47454,3.3801,4.82852,6.93568,7.12222,10.54049-1.40489,3.41291-2.98492,6.81478-4.64768,10.11249A193.39609,193.39609,0,0,0,264.722,371.93446c4.19188-17.72834,3.08372-30.58965,3.0231-31.1218l-.27964-3.17681-3.221-.32385c-.52645-.05492-13.35494-1.18519-31.05582,3.02879a186.65961,186.65961,0,0,0-45.34378-26.5843c-42.64453-17.53041-77.85941-14.0244-79.34635-13.88173l-3.11117.32384-.32384,3.10012c-.15372,1.41561-3.55558,35.73063,13.20725,77.48065-2.08506,3.45679-4.10447,6.93534-5.94238,10.40318a212.2598,212.2598,0,0,1-16.85057-69.38221,181.68019,181.68019,0,0,1,.27461-31.04477m30.84718,77.39826c-1.09712,1.498-2.16175,3.03448-3.18787,4.587a177.40388,177.40388,0,0,1-10.88609-65.42576,176.82946,176.82946,0,0,1,65.4261,10.88041c-1.58573,1.136-3.23174,2.25518-4.78465,3.38009-24.44968-3.54453-42.63884.01072-43.36857.17549l-2.502.49363-.5211,2.50769c-.17582.82854-3.75317,18.96812-.17582,43.4014M99.49984,420.7789a158.26364,158.26364,0,0,1-24.27955-20.81741A164.4147,164.4147,0,0,1,99.37359,379.276a220.198,220.198,0,0,0,8.51035,20.7953,201.50073,201.50073,0,0,0-8.3841,20.70757M51.30811,399.96149a202.92593,202.92593,0,0,1,42.886-38.04073c.79,3.19892,1.68419,6.38678,2.72672,9.67914-19.32479,13.28361-29.377,25.39341-29.85958,25.953L65.075,399.96149l1.98626,2.47487c.48259.53215,10.57331,12.713,29.97478,25.99154-1.01506,3.30307-1.93134,6.55691-2.73241,9.69521a202.65719,202.65719,0,0,1-42.9955-38.16162m75.50008,109.26118a185.16074,185.16074,0,0,1-31.05582-.148,190.36635,190.36635,0,0,1-.12626-31.01228A213.43362,213.43362,0,0,1,115.59289,401.712,191.60921,191.60921,0,0,1,125.82058,383.21c2.55124-4.12624,5.21265-8.07131,7.91759-11.77491l.9491-1.27294-.26323-1.61855a139.60876,139.60876,0,0,1-.51038-39.65391,141.73516,141.73516,0,0,1,39.62109.48258l1.54186.27462,1.31145-.91092c3.31412-2.48023,6.74881-4.78464,10.32649-7.07265,3.54453,1.4923,7.08336,3.10013,10.48523,4.87239a194.65221,194.65221,0,0,0-20.21929,13.95307c-17.79934-4.25216-30.60606-3.0231-31.18744-2.941l-3.12758.29638-.34561,3.144c-.00569.57066-1.26758,13.4045,3.00133,31.21523a185.4599,185.4599,0,0,0-17.13591,25.88169,174.10844,174.10844,0,0,0-9.218,19.21527c-17.48118,42.56751-14.21093,77.9361-14.10142,79.40127l.36771,3.17681,3.08907.26357a77.01575,77.01575,0,0,0,8.80674.362A189.67035,189.67035,0,0,0,186.089,486.78135c3.26456,1.96416,6.57868,3.85163,9.98055,5.67882a213.661,213.661,0,0,1-69.26132,16.7625M123.41168,427.155c1.02612,1.54153,2.09075,3.08338,3.15505,4.565-3.54453,24.41117.07669,42.5896.20864,43.39067l.5211,2.50736,2.502.494c.72973.15372,18.9574,3.74748,43.40172.18654,1.60214,1.11386,3.17682,2.22772,4.78465,3.31412-30.56788,11.13827-56.68567,11.39614-65.65651,11.08335-.32384-8.9216-.04387-34.96806,11.08335-65.541m81.52484,69.74424a216.55267,216.55267,0,0,0,20.95438,8.52107,162.21868,162.21868,0,0,1-20.76784,24.42222,164.00586,164.00586,0,0,1-20.85023-24.55384,209.46376,209.46376,0,0,0,20.66369-8.38945m.17549,56.89933A206.49833,206.49833,0,0,1,167,510.47383c3.10548-.78466,6.31545-1.69557,9.646-2.69423,13.26184,19.4842,25.49221,29.75543,26.00795,30.244l2.46918,2.008,2.44708-2.008c.57066-.48861,12.71328-10.75984,25.98618-30.1506,3.22068.993,6.513,1.92029,9.62957,2.63361A207.99842,207.99842,0,0,1,205.112,553.79853m109.014-44.72389a185.4819,185.4819,0,0,1-31.08328.148,212.25408,212.25408,0,0,1-76.4053-20.03811,200.97416,200.97416,0,0,1-18.18379-9.937c-4.15906-2.57869-8.19187-5.33856-12.01068-8.0492l-1.28968-.9933-1.57467.25251a142.19251,142.19251,0,0,1-39.665.50469,139.51044,139.51044,0,0,1,.51038-39.64287l.26323-1.56362-.9491-1.27294c-2.365-3.24279-4.642-6.52945-6.89716-10.06862,1.53081-3.55558,3.11653-7.06729,4.84493-10.4802a188.288,188.288,0,0,0,13.80537,19.93965c-4.24713,17.82144-2.97956,30.65529-2.92463,31.19313l.29069,3.16576,3.12758.31848c.55961.03282,13.4102,1.29471,31.226-3.02879a185.85945,185.85945,0,0,0,26.16166,17.36063,183.571,183.571,0,0,0,18.89712,8.97652,189.5983,189.5983,0,0,0,70.66051,14.4745c5.28933,0,8.37841-.30174,8.81745-.33456l3.12223-.3292.3292-3.11687c.148-1.50334,3.281-35.91716-13.37738-77.68928,1.992-3.2592,3.87942-6.54586,5.70092-9.96413A216.34925,216.34925,0,0,1,314.258,478.06236a191.47612,191.47612,0,0,1-.13195,31.01228m1.45981-70.91871c-.83422-3.14935-1.74514-6.35932-2.70528-9.62924,19.52237-13.32246,29.77217-25.53641,30.20552-26.04646l2.08506-2.51874-2.03549-2.40857c-.48292-.55961-10.73272-12.69118-30.12884-25.97513.98225-3.31412,1.85465-6.52409,2.65572-9.657a206.31837,206.31837,0,0,1,43.26978,38.10134,209.90993,209.90993,0,0,1-43.34647,38.13383" transform="translate(-41.6129 -236.47879)"/>
    <path class="b" d="M459.83317,501.89617h-20.022v15.75848H457.084v4.46114h-17.6185a13.06282,13.06282,0,0,1,.34562,2.5951V543.756H434.84v-46.3756h26.24941Z" transform="translate(-41.6129 -236.47879)"/>
    <path class="b" d="M476.13084,544.3277c-5.147,0-7.75852-2.74346-7.75852-8.38376V493.63431h5.01506v42.30963c0,2.93.91627,3.85732,2.8312,3.85732h2.44708v4.52644Z" transform="translate(-41.6129 -236.47879)"/>
    <path class="b" d="M495.99447,552.79251c-1.81647,4.80675-4.57065,6.50232-10.43064,6.50232h-4.4665v-4.505h4.4665c3.96147,0,4.85564-.86135,5.97519-4.06026l2.26054-6.10146-13.295-35.40711h5.2622l9.51973,25.37165a39.90946,39.90946,0,0,1,1.13027,4.36737c.40053-1.61286.84494-3.37441,1.2016-4.36737l9.48155-25.37165H512.329Z" transform="translate(-41.6129 -236.47879)"/>
    <path class="b" d="M546.34359,544.7624c-5.09744,0-9.08637-1.89819-9.08637-9.47016V516.225a6.6609,6.6609,0,0,1,.565-2.57334H531.3423V509.213h5.91492V497.52579l5.02577-1.48158V509.213h12.44436l-1.43737,4.4387H542.283v21.64059c0,4.148,1.83288,5.34425,5.6681,5.34425a10.06234,10.06234,0,0,0,5.48692-1.95344l3.155,3.23743c-2.61184,2.21667-6.91357,2.84192-10.24946,2.84192" transform="translate(-41.6129 -236.47879)"/>
    <path class="b" d="M585.49617,543.75838V521.586c0-7.4896-3.155-9.229-7.221-9.229-2.93535,0-4.8888.91627-8.07666,3.0452l-3.3801,2.21667v26.13956h-5.05323V493.63h4.94908v17.83249a9.18822,9.18822,0,0,1-.49364,2.365l3.16577-2.18385c3.2592-2.25518,6.00835-3.44573,8.88878-3.44573,6.97955,0,12.214,3.69824,12.214,13.20156v22.35893Z" transform="translate(-41.6129 -236.47879)"/>
    <path class="b" d="M603.05505,527.93359c.26356,8.53212,2.60649,12.63626,10.716,12.63626,5.02611,0,8.02208-1.68453,9.76688-4.98224l4.31278,1.71768c-2.288,4.75685-6.288,7.45644-14.07966,7.45644-11.012,0-16.02707-5.53079-16.02707-18.33182,0-11.56627,3.9176-18.233,16.11515-18.233,12.89949,0,14.584,8.53246,14.584,18.233v1.50368Zm10.804-15.57765c-6.793,0-10.26621,2.74346-10.804,11.30874h20.13154c0-6.93534-1.6239-11.30874-9.32749-11.30874" transform="translate(-41.6129 -236.47879)"/>
    <path class="b" d="M675.659,543.75838V521.586c0-7.4896-3.13863-9.229-7.26487-9.229-2.91895,0-4.83957.91627-8.06562,3.0452l-3.39114,2.21667v26.13956H651.9169V509.213h3.98894l1.0864,4.15371,2.52946-1.723c3.26489-2.25518,6.04653-3.44573,8.87238-3.44573,6.99595,0,12.27959,3.69824,12.27959,13.20156v22.35893Z" transform="translate(-41.6129 -236.47879)"/>
    <path class="b" d="M693.14382,527.93359c.24682,8.53212,2.63362,12.63626,10.74879,12.63626,4.99865,0,8.01639-1.68453,9.70627-4.98224l4.3677,1.71768c-2.33188,4.75685-6.31545,7.45644-14.074,7.45644-11.07263,0-16.04917-5.53079-16.04917-18.33182,0-11.56627,3.96147-18.233,16.08233-18.233,12.92159,0,14.61147,8.53246,14.61147,18.233v1.50368Zm10.782-15.57765c-6.69958,0-10.29367,2.74346-10.782,11.30874h20.17006c0-6.93534-1.66275-11.30874-9.38811-11.30874" transform="translate(-41.6129 -236.47879)"/>
    <path class="b" d="M759.0947,543.75838h-4.92731L747.02877,520.664a63.38255,63.38255,0,0,1-1.26189-6.41424,49.50541,49.50541,0,0,1-1.04822,6.41424l-7.21531,23.09436h-4.91057L721.80548,509.213h4.9109l7.1547,23.56087c.55425,1.8215,1.20729,6.32081,1.20729,6.32081a53.81855,53.81855,0,0,1,1.20161-6.32081l7.21531-23.56087h4.75719l7.22067,23.56087a55.00611,55.00611,0,0,1,1.05894,6.45812s.74614-4.4608,1.30609-6.45812l7.19856-23.56087h4.90555Z" transform="translate(-41.6129 -236.47879)"/>
    <path class="b" d="M813.46725,498.89651c-1.2458-.19725-2.1949-.35633-3.11117-.57032a19.27521,19.27521,0,0,0-3.66543-.32385c-3.72537,0-6.9849,1.87642-6.9849,7.41826v3.8024H811.618l-1.09745,4.38411H799.70575v30.1506h-4.97654V516.42726a6.90443,6.90443,0,0,1,.58171-2.82015h-5.96448V509.223h5.38277v-3.8024c0-7.89582,5.04787-11.79132,11.96144-11.79132a40.58454,40.58454,0,0,1,7.80239.93269Z" transform="translate(-41.6129 -236.47879)"/>
    <path class="b" d="M819.83528,527.93359c.25787,8.53212,2.63362,12.63626,10.727,12.63626,5.02041,0,8.05489-1.68453,9.73908-4.98224l4.35665,1.71768c-2.33188,4.75685-6.33186,7.45644-14.09573,7.45644-11.02877,0-16.06559-5.53079-16.06559-18.33182,0-11.56627,3.9943-18.233,16.13156-18.233,12.9159,0,14.63357,8.53246,14.63357,18.233v1.50368Zm10.793-15.57765c-6.76555,0-10.27156,2.74346-10.793,11.30874h20.17006c0-6.93534-1.67916-11.30874-9.37706-11.30874" transform="translate(-41.6129 -236.47879)"/>
    <path class="b" d="M856.74206,527.93359c.26322,8.53212,2.639,12.63626,10.74343,12.63626,5.00936,0,7.98323-1.68453,9.728-4.98224l4.35665,1.71768c-2.29906,4.75685-6.30976,7.45644-14.08468,7.45644-11.1001,0-16.06592-5.53079-16.06592-18.33182,0-11.56627,3.97822-18.233,16.12084-18.233,12.92159,0,14.61147,8.53246,14.61147,18.233v1.50368Zm10.79835-15.57765c-6.72168,0-10.26085,2.74346-10.79835,11.30874h20.20823c0-6.93534-1.68988-11.30874-9.40988-11.30874" transform="translate(-41.6129 -236.47879)"/>
    <path class="b" d="M897.3819,544.3277c-5.06461,0-7.71464-2.74346-7.71464-8.38376V493.63431H894.693v42.30963c0,2.93.91627,3.85732,2.8369,3.85732h2.43067v4.52644Z" transform="translate(-41.6129 -236.47879)"/>
    <path class="b" d="M910.88688,499.84527H905.691l-.4665-.55961v-4.97654c0-.5432.06028-.68051.4665-.68051h5.1959c.39518,0,.46651.07669.46651.68051v4.97654Zm-5.14131,9.37706h5.01506V543.7624h-5.01506Z" transform="translate(-41.6129 -236.47879)"/>
    <path class="b" d="M943.34055,543.75838V521.586c0-7.4896-3.12222-9.229-7.21531-9.229-2.91928,0-4.86167.91627-8.08771,3.0452l-3.37474,2.21667v26.13956h-5.01506V509.213H923.637l1.10281,4.15371,2.4799-1.723c3.30307-2.25518,6.05758-3.44573,8.90553-3.44573,7.00132,0,12.26319,3.69824,12.26319,13.20156v22.35893Z" transform="translate(-41.6129 -236.47879)"/>
    <path class="b" d="M988.00048,513.11582h-2.51841a10.6556,10.6556,0,0,1-3.19356-.47187,12.0221,12.0221,0,0,1,2.80944,7.69824c0,8.01638-4.59242,11.82983-14.13961,11.82983a28.05788,28.05788,0,0,1-3.98927-.40054,14.8846,14.8846,0,0,0-2.4032-.4223c-2.07937,0-2.93536,1.16845-2.93536,2.76523,0,1.33322.79,2.04118,2.44172,2.354l14.28227,2.49095c7.49528,1.33891,9.03145,5.20728,9.03145,9.48154,0,8.2632-7.23708,10.83118-16.521,10.83118-7.58839,0-16.576-1.35-16.576-11.61048a10.88049,10.88049,0,0,1,4.92162-9.12455,5.35952,5.35952,0,0,1-2.12324-4.52677c0-2.23878,1.23443-3.6872,3.52812-4.90555a10.76461,10.76461,0,0,1-3.78063-8.76252c0-8.70225,6.54586-12.148,14.12353-12.148,3.62658,0,6.41391.46651,9.1356,2.04119l5.32216-2.04119h3.48424Zm-10.36467,29.82709-14.79264-2.64466c-2.2937,1.55257-3.39115,4.19757-3.39115,7.36333,0,5.75584,3.92865,7.638,11.41289,7.638,8.52676,0,11.4236-2.68853,11.4236-6.85865,0-3.11117-1.32752-4.88344-4.6527-5.498m-6.67747-30.65562c-5.509,0-9.00432,2.20026-9.00432,8.0549,0,6.085,4,7.75851,9.00432,7.75851,5.6403,0,9.0204-1.54722,9.0204-7.75851,0-5.27828-3.12758-8.0549-9.0204-8.0549" transform="translate(-41.6129 -236.47879)"/>
    <path class="b" d="M410.71947,348.07151H431.1253a3.62041,3.62041,0,0,1,3.55524,2.151c10.87538,19.98352,47.35215,85.37647,47.35215,85.37647s37.17938-65.393,48.19709-85.45316a3.441,3.441,0,0,1,3.41292-2.07434H544.002a2.08488,2.08488,0,0,1,1.73945,3.13328c-12.57062,22.06824-47.56615,83.13769-55.05574,96.18554-.91627,1.63529-1.87642,2.50769-3.74748,2.50769H467.76147c-1.86034,0-3.07266-1.17414-3.97252-2.782-7.48423-13.06995-42.15625-73.64543-54.81461-95.66444-.47723-.8503-1.23443-3.3801,1.74513-3.3801" transform="translate(-41.6129 -236.47879)"/>
    <path class="b" d="M716.83229,365.51083c-5.31144-2.90789-21.54715-11.429-46.20547-11.429-26.73768,0-31.96138,11.49494-31.96138,19.53878,0,10.18918,10.56226,13.0368,22.68847,13.88207,7.5117.54856,26.27118,1.44842,36.43859,3.31412,24.23568,4.41124,30.72126,17.99693,30.72126,28.94866,0,22.91888-26.61143,32.70786-59.09959,32.70786-27.28089,0-46.968-8.68048-54.89131-13.05889-1.44842-.7793-1.50334-2.61185-.84494-3.92866,2.03013-3.62155,1.39383-2.4089,3.0673-5.53079a2.35548,2.35548,0,0,1,3.62122-1.07c6.4253,4.07132,26.98484,14.08468,49.04773,14.08468,22.67741,0,35.07255-9.93667,35.07255-19.84621,0-8.37271-3.20461-13.44838-20.34019-15.868-9.07-1.19624-29.40981-1.26188-39.69778-3.68184-10.27157-2.36469-28.29629-7.28664-28.29629-27.3358,0-11.08335,8.81779-31.61543,55.50048-31.61543,25.51967,0,42.50689,6.864,50.89668,11.23171a2.32521,2.32521,0,0,1,1.03683,3.45678c-1.40455,2.25485-1.93134,3.26992-3.39081,5.65672a2.37483,2.37483,0,0,1-3.36335.54319" transform="translate(-41.6129 -236.47879)"/>
    <path class="b" d="M585.84078,348.07151H569.21525a3.17517,3.17517,0,0,0-3.13295,3.13328v95.2475a3.33415,3.33415,0,0,0,3.13295,3.44573h16.62553a3.34865,3.34865,0,0,0,3.1604-3.44573v-95.2475a3.1917,3.1917,0,0,0-3.1604-3.13328" transform="translate(-41.6129 -236.47879)"/>
    <path class="b" d="M826.86339,444.396c-1.45981-4.04386-.84527-2.584-2.12357-6.27694-.6584-2.09577-2.50769-1.73944-3.3965-1.37173-6.69389,2.76557-15.68146,4.89449-22.1014,4.89449-16.296,0-25.95839-7.09475-25.95839-21.68981V360.748h46.02429a3.31466,3.31466,0,0,0,3.43469-3.12189v-4.72973a3.26976,3.26976,0,0,0-3.43469-3.11117H773.28353V325.15431a2.58826,2.58826,0,0,0-3.48424-2.57869c-3.96148,1.26188-11.47317,3.75852-15.4457,5.04251a3.991,3.991,0,0,0-2.8533,4.03817v83.05564c0,20.61982,12.07665,37.51394,44.5263,37.51394a102.80019,102.80019,0,0,0,28.95469-4.58706c.95479-.29605,2.68318-1.19055,1.88211-3.24279" transform="translate(-41.6129 -236.47879)"/>
    <path class="b" d="M1101.28978,445.15825c-11.61014-8.88878-37.60168-28.55951-40.81165-30.97913,18.32646,0,40.241-10.45241,40.241-33.66767,0-25.55818-24.83917-32.4386-36.444-32.4386H989.15386a3.29592,3.29592,0,0,0-3.12223,3.45679v94.84127a3.30992,3.30992,0,0,0,3.12223,3.45678h15.95038a3.32313,3.32313,0,0,0,3.13864-3.45678v-31.1218h24.71291s28.082,22.83649,37.88734,30.85288c.91058.74078,4.37306,3.797,8.1423,3.797h21.871c1.4923,0,3.07267-2.716.43336-4.74078m-93.0469-39.84614V358.16324h47.09394c14.93565,0,21.49792,12.04383,21.49792,22.47983,0,11.70357-5.79971,24.669-24.88873,24.669Z" transform="translate(-41.6129 -236.47879)"/>
    <path class="b" d="M959.53239,389.90894v-.88881c0-6.44706-1.564-21.00964-13.98622-31.33579-4.37306-3.62156-17.57462-11.8794-43.18773-11.8794-21.42089,0-37.49183,5.46515-53.28347,13.64061a2.51939,2.51939,0,0,0-1.18519,3.40186c1.83823,4.1373,1.498,3.75853,2.62289,6.17815.642,1.42665,1.85465,1.77226,3.45679.856,7.8409-4.47185,25.60741-13.86,45.65658-13.86,24.4115,0,37.70616,11.10579,37.70616,26.45269v11.75281c-8.70225-2.31011-24.79529-5.89851-41.08593-5.89851-41.66228,0-56.18065,15.20993-56.18065,32.532,0,25.28391,25.08632,31.5662,47.26977,31.5662,18.99022,0,36.17536-4.296,49.67866-14.41957h.44441c0,4.82851-.011,8.44438-.011,8.44438a3.3514,3.3514,0,0,0,3.20427,3.44573H956.3663a3.31586,3.31586,0,0,0,3.16609-3.45679Zm-67.88958,52.40538c-22.35927,0-28.2139-11.39614-28.2139-22.39208,0-18.50162,22.22765-22.0572,35.93926-22.0572a161.3367,161.3367,0,0,1,37.964,4.92731v25.26717c-9.004,6.12322-22.809,14.2548-45.68939,14.2548" transform="translate(-41.6129 -236.47879)"/>
    <path class="b" d="M1238.3871,389.90894v-.88881c0-6.44706-1.50368-21.00964-13.99728-31.33579-4.40052-3.62156-17.49223-11.8794-43.17667-11.8794-21.38238,0-37.48112,5.46515-53.29453,13.64061a2.58035,2.58035,0,0,0-1.218,3.40186c1.8657,4.1373,1.5308,3.75853,2.70494,6.17815.59277,1.42665,1.82719,1.77226,3.41292.856,7.83554-4.47185,25.61311-13.86,45.63481-13.86,24.44968,0,37.76644,11.10579,37.76644,26.45269v11.75281c-8.69119-2.31011-24.82275-5.89851-41.05846-5.89851-41.72826,0-56.24093,15.20993-56.24093,32.532,0,25.28391,25.11344,31.5662,47.319,31.5662,18.96276,0,36.14254-4.296,49.64015-14.41957h.43369c0,4.82851-.0221,8.44438-.0221,8.44438a3.36617,3.36617,0,0,0,3.25384,3.44573h15.72a3.31747,3.31747,0,0,0,3.12223-3.45679Zm-67.90064,52.40538c-22.32109,0-28.20285-11.39614-28.20285-22.39208,0-18.50162,22.1945-22.0572,35.97208-22.0572a161.71817,161.71817,0,0,1,37.964,4.92731v25.26717c-9.02609,6.12322-22.88605,14.2548-45.73326,14.2548" transform="translate(-41.6129 -236.47879)"/>
  </g>
</svg>
